<?xml version="1.0" encoding="utf-8"?>
<!-- Generator: Adobe Illustrator 20.0.0, SVG Export Plug-In . SVG Version: 6.00 Build 0)  -->
<svg version="1.1" id="Layer_1" xmlns="http://www.w3.org/2000/svg" xmlns:xlink="http://www.w3.org/1999/xlink" x="0px" y="0px"
	 viewBox="0 0 160 200" style="enable-background:new 0 0 160 200;" xml:space="preserve">
<style type="text/css">
	.st0{fill:#43B1BF;}
	.st1{fill:#66D0D8;}
</style>
<g>
	<g>
		<path class="st0" d="M158.1,119.9c0,43.1-34.9,78.1-78.1,78.1S2,163,2,119.9S80,2.7,80,2.7S158.1,76.7,158.1,119.9z"/>
	</g>
	<g>
		<path class="st1" d="M89.8,188.2c-43.1,0-78.1-35-78.1-78.1c0-33.5,46.8-85.4,67.9-107C75.3,7.2,2,78,2,119.9
			C2,163,36.9,198,80,198c24,0,45.5-10.9,59.8-28C126.3,181.4,108.8,188.2,89.8,188.2z"/>
	</g>
	<g>
		<path d="M80,200c-44.1,0-80-35.9-80-80.1c0-14.3,8.2-33.2,24.4-56.2l3.2,2.3C11.9,88.4,3.9,106.5,3.9,120
			c0,42,34.1,76.2,76.1,76.2s76.1-34.2,76.1-76.2C156.1,81.2,90.3,15.6,80,5.5c-4.7,4.6-21.3,21-37.6,41.1l-3-2.5
			C58.8,20.3,78.5,1.6,78.7,1.4L80,0l1.3,1.3c3.2,3,78.7,75.1,78.7,118.6C160,164,124.1,200,80,200z"/>
	</g>
	<g>
		<ellipse class="st1" cx="55.6" cy="144.3" rx="14.6" ry="14.6"/>
	</g>
</g>
</svg>
