<?xml version="1.0" encoding="utf-8"?>
<!-- Generator: Adobe Illustrator 20.0.0, SVG Export Plug-In . SVG Version: 6.00 Build 0)  -->
<svg version="1.1" id="icone" xmlns="http://www.w3.org/2000/svg" xmlns:xlink="http://www.w3.org/1999/xlink" x="0px" y="0px"
	 viewBox="0 0 317 361.3" style="enable-background:new 0 0 317 361.3;" xml:space="preserve">
<style type="text/css">
	.st0{fill:#60C3E5;}
	.st1{fill:#02005C;}
</style>
<title></title>
<path class="st0" d="M269.2,111.6v0.1c-31.9,0-57.7,25.8-57.7,57.7c0,10.4,2.8,20.6,8.1,29.6c27.4,16.3,62.8,7.4,79.2-20
	c5.3-8.9,8.1-19.2,8.1-29.6h0.1v-37.8H269.2z"/>
<path class="st0" d="M104,220.8v0.1c-40.9,0-74,33.2-73.9,74.1c0,14.7,4.4,29,12.6,41.2c33.9,22.8,79.9,13.8,102.7-20.1
	c8.2-12.2,12.6-26.5,12.6-41.2h0.1v-54.1H104z"/>
<path class="st0" d="M140,30.1c-22.5,0-40.7,18.3-40.7,40.8c0,5.9,1.3,11.7,3.7,17c20.5,9.4,44.7,0.5,54.1-20
	c2.5-5.3,3.7-11.1,3.7-17h0.1V30L140,30.1L140,30.1z"/>
<path class="st1" d="M15.2,257.8c-1.3,0-2.5-0.2-3.8-0.7c-5.1-2.1-7.5-7.9-5.5-13c0.1-0.3,0.2-0.6,0.3-0.9c2.2-5.1,8-7.4,13.1-5.3
	c5,2.2,7.4,7.9,5.3,13c-0.1,0.3-0.2,0.5-0.3,0.7C22.9,255.4,19.1,257.8,15.2,257.8z M24.7,251.1C24.6,251.1,24.6,251.1,24.7,251.1
	C24.6,251.1,24.6,251.1,24.7,251.1z M24.7,251.1C24.7,251.1,24.7,251.1,24.7,251.1C24.7,251.1,24.7,251.1,24.7,251.1z"/>
<path class="st1" d="M84,361.3c-0.9,0-1.9,0-2.8,0C35,359.8-1.4,321,0,274.7c0-0.5,0-1,0-1.5c0-0.3,0-0.7,0-1c0-5.5,4.5-10,10-10
	s10,4.5,10,10c0,0.6,0,1.1,0,1.7c0,0.3,0,0.7,0,1c0,0.1,0,0.2,0,0.3c-1.2,35.3,26.6,64.9,61.9,66.1c35.3,1.1,64.9-26.6,66.1-61.9
	c0-1.4,0-2.8,0-4.2c0-0.6,0-1.3,0.1-1.9v-62.5H84c-18.3,0-35.7,7.9-47.8,21.7c-3.6,4.1-10,4.5-14.1,0.9c-4.1-3.7-4.5-10-0.9-14.1
	c15.9-18,38.8-28.4,62.8-28.5h74.1c5.5,0,10,4.5,10,10v74.1c0,0.5,0,0.9-0.1,1.3c0,1.3,0,2.6,0,3.9
	C166.5,325.5,129.1,361.3,84,361.3z"/>
<path class="st1" d="M82,46c-1.3,0-2.7-0.3-3.9-0.8c-5-2.2-7.4-7.9-5.3-13c0.1-0.3,0.2-0.5,0.3-0.8c2.2-5.1,8-7.4,13.1-5.3
	c5,2.2,7.4,7.9,5.3,13c-0.1,0.3-0.2,0.6-0.3,0.8C89.6,43.7,85.9,46,82,46z"/>
<path class="st1" d="M120,101.6c-22.8,0-43.5-15.5-49.3-38.5C69.4,57.7,72.7,52.3,78,51c5.4-1.3,10.8,1.9,12.1,7.3
	c4.1,16.5,20.8,26.5,37.3,22.4c13.8-3.4,23.4-15.7,23.4-29.9c0-0.4,0-0.8,0.1-1.2V20h-29.7c-0.4,0-0.8,0-1.2,0.1c0,0,0,0,0,0
	c-5.8,0-11.5,1.7-16.4,4.8c-4.7,3-10.8,1.6-13.8-3.1c-3-4.7-1.6-10.8,3.1-13.8c7.8-5,16.7-7.7,25.9-7.9C119.1,0,119.5,0,120,0h40.8
	c5.5,0,10,4.5,10,10v40.8c0,0.4,0,0.9-0.1,1.3c-0.6,22.8-16.2,42.4-38.5,48C128.1,101.1,124,101.6,120,101.6z"/>
<path class="st1" d="M195.7,137.7c-1.3,0-2.6-0.3-3.9-0.8c-5.1-2.2-7.5-8-5.3-13.1l0-0.1c0.1-0.2,0.1-0.3,0.2-0.5
	c2.1-5.1,7.9-7.6,13-5.5c5.1,2.1,7.6,7.9,5.5,13l0,0.1c-0.1,0.3-0.2,0.5-0.3,0.8C203.3,135.4,199.6,137.7,195.7,137.7z"/>
<path class="st1" d="M249.1,217.3c-35.9,0-66-28.4-67.6-64.6c-0.3-5.5,4-10.2,9.5-10.4c5.5-0.2,10.2,4,10.4,9.5
	c0.6,12.7,6.1,24.5,15.5,33.1c9.4,8.6,21.6,13,34.3,12.4c25.6-1.2,45.6-22.2,45.5-47.8c0-0.5,0-1,0.1-1.4v-46.4h-46.5
	c-0.5,0.1-0.9,0.1-1.4,0.1c0,0-0.1,0-0.1,0c-11.8,0-23.1,4.4-31.9,12.3c-4.1,3.7-10.4,3.4-14.1-0.7c-3.7-4.1-3.4-10.4,0.7-14.1
	c12.1-11,27.6-17.1,43.9-17.5c0.5-0.1,1-0.1,1.5-0.1H307c5.5,0,10,4.5,10,10v57.8c0,0.5,0,1-0.1,1.5c-0.7,35.7-28.8,64.6-64.6,66.3
	C251.2,217.3,250.2,217.3,249.1,217.3z"/>
</svg>
