<?xml version="1.0" encoding="utf-8"?>
<!-- Generator: Adobe Illustrator 20.0.0, SVG Export Plug-In . SVG Version: 6.00 Build 0)  -->
<svg version="1.1" id="Слой_1" xmlns="http://www.w3.org/2000/svg" xmlns:xlink="http://www.w3.org/1999/xlink" x="0px" y="0px"
	 viewBox="0 0 53.6 58.7" style="enable-background:new 0 0 53.6 58.7;" xml:space="preserve">
<style type="text/css">
	.st0{fill:#455A64;}
	.st1{fill:#B0BEC5;}
	.st2{fill:#2196F3;}
	.st3{fill:#039BE5;}
	.st4{fill:#4FC3F7;}
	.st5{fill:#29B6F6;}
	.st6{fill:#78909C;}
</style>
<g id="row_1">
	<g id="umbrella">
		<g>
			<path class="st0" d="M52.6,32.8c-0.5,0-0.9-0.4-1-0.9c-0.1-0.7-0.2-1.4-0.3-2.1c-0.1-0.5,0.3-1.1,0.9-1.1
				c0.5-0.1,1.1,0.3,1.1,0.9c0.1,0.7,0.2,1.4,0.3,2.2C53.7,32.3,53.3,32.8,52.6,32.8C52.7,32.8,52.6,32.8,52.6,32.8z"/>
			<path class="st0" d="M1,32.8C1,32.8,0.9,32.8,1,32.8c-0.6-0.1-1-0.5-1-1.1c0.1-0.7,0.2-1.5,0.3-2.2c0.1-0.5,0.6-0.9,1.1-0.9
				c0.5,0.1,0.9,0.6,0.9,1.1c-0.1,0.7-0.2,1.4-0.3,2.1C1.9,32.4,1.5,32.8,1,32.8z"/>
			<path class="st0" d="M14.8,34.1L14.8,34.1c-0.6,0-1-0.5-1-1c0-0.6,0-1.1,0-1.7v-0.3c0-0.6,0.4-1,1-1s1,0.5,1,1v0.3
				c0,0.5,0,1.1,0,1.6C15.8,33.7,15.4,34.1,14.8,34.1z"/>
			<path class="st0" d="M38.8,34.1c-0.5,0-1-0.4-1-1c0-0.5,0-1.1,0-1.6v-0.3c0-0.6,0.4-1,1-1s1,0.4,1,1v0.2c0,0.6,0,1.1,0,1.7
				C39.8,33.7,39.3,34.1,38.8,34.1L38.8,34.1z"/>
		</g>
		<rect x="25.8" y="27.5" class="st1" width="2" height="22"/>
		<path class="st2" d="M22.4,52.1c0.3,0.3,0.5,0.8,0.4,1.3c0,0.3,0,0.6,0.3,0.9c0.4,0.4,1,0.4,1.4,0c0.2-0.2,0.3-0.4,0.3-0.7
			c0-1.1,0-3.6,0-5c0-0.6,0.4-1,1-1h2c0.6,0,1,0.4,1,1v5c0,1.3-0.5,2.6-1.5,3.6s-2.3,1.5-3.5,1.5s-2.6-0.5-3.5-1.5
			c-1.4-1.4-1.8-3.5-1.1-5.3c0.4-1,1.7-1.3,2.5-0.5L22.4,52.1z"/>
		<path class="st3" d="M26.8,3.1c3.6,0.3,7.1,1,10.4,2.1c4.1,1.4,7.7,4.1,10,7.8c3.1,4.9,5.2,10.5,6.1,16.6
			c-4.9,0.2-9.8,0.7-14.6,1.6c-0.2-6.9-1.4-13.7-3.5-20.3c-0.8-2.4-2.4-4.4-4.5-5.6C29.4,4.5,28.1,3.8,26.8,3.1z"/>
		<path class="st4" d="M26.7,3.1c-3.6,0.3-7.1,1-10.4,2.1c-4.1,1.4-7.7,4.1-10,7.8c-3.1,4.9-5.2,10.5-6.1,16.6
			c4.9,0.2,9.8,0.7,14.6,1.6c0.2-6.9,1.4-13.7,3.5-20.4c0.8-2.4,2.4-4.4,4.5-5.6C24.1,4.4,25.4,3.8,26.7,3.1z"/>
		<path class="st5" d="M38.7,31.1c-0.2-6.9-1.4-13.7-3.5-20.3c-0.8-2.4-2.4-4.4-4.5-5.6c-1.3-0.7-2.7-1.4-4-2.1
			c-1.3,0.6-2.6,1.3-3.9,2c-2.2,1.2-3.8,3.2-4.5,5.6c-2.1,6.6-3.2,13.5-3.5,20.4C22.6,30.2,31,30.2,38.7,31.1z"/>
		<path class="st6" d="M28.3,3.2c0,0.6-3,0.6-3,0l0.4-2.4c0.1-0.5,0.5-0.8,1-0.8H27c0.5,0,0.9,0.4,1,0.8L28.3,3.2z"/>
	</g>
</g>
</svg>
