<?xml version="1.0" encoding="utf-8"?>
<!-- Generator: Adobe Illustrator 20.0.0, SVG Export Plug-In . SVG Version: 6.00 Build 0)  -->
<svg version="1.1" id="Layer_1" xmlns="http://www.w3.org/2000/svg" xmlns:xlink="http://www.w3.org/1999/xlink" x="0px" y="0px"
	 viewBox="0 0 25.4 29.3" style="enable-background:new 0 0 25.4 29.3;" xml:space="preserve">
<style type="text/css">
	.st0{fill:#97C2F7;}
	.st1{fill:#B3B3B3;}
	.st2{fill:#FB7B76;}
	.st3{fill:none;stroke:#000000;stroke-width:0.8;stroke-linecap:round;stroke-linejoin:round;stroke-miterlimit:10;}
	.st4{fill:none;stroke:#000000;stroke-width:0.75;stroke-linecap:round;stroke-linejoin:round;stroke-miterlimit:10;}
</style>
<g>
	<circle class="st0" cx="12.5" cy="13" r="1.4"/>
	<polygon class="st1" points="14.5,28.9 10.4,28.9 11.7,14.7 13.5,14.7 	"/>
	<path class="st2" d="M10.3,0.9l2.8,7.7c0,0-0.1,1.6-1,2.7S11.3,10,11.3,10L9.5,1.3C9.5,1.3,9.5-0.3,10.3,0.9z"/>
	<path class="st2" d="M24.4,13.4l-8,1.2c0,0-1.6-0.4-2.4-1.4c-0.8-1,1.5-0.5,1.5-0.5l8.6,0C24.1,12.7,25.7,13,24.4,13.4z"/>
	<path class="st2" d="M2.8,19.9l5.4-6c0,0,1.5-0.7,2.7-0.4s-0.8,1.3-0.8,1.3l-6.6,5.5C3.5,20.4,2.1,21.1,2.8,19.9z"/>
	<g>
		<path class="st3" d="M14.8,26.2"/>
		<path d="M22,5.7c-0.1,0-0.2-0.1-0.3-0.2c-1.4-1.9-3.3-3.3-5.5-4.1C16,1.4,15.9,1.2,16,1c0.1-0.2,0.3-0.3,0.5-0.2
			c2.3,0.8,4.4,2.3,5.9,4.3c0.1,0.2,0.1,0.4-0.1,0.5C22.2,5.6,22.1,5.7,22,5.7z"/>
		<path d="M18,24.6c-0.1,0-0.3-0.1-0.3-0.2c-0.1-0.2,0-0.4,0.2-0.5c2.4-1.3,4.4-3.5,5.5-6.1c0.1-0.2,0.3-0.3,0.5-0.2
			c0.2,0.1,0.3,0.3,0.2,0.5c-1.1,2.8-3.2,5.1-5.8,6.5C18.1,24.5,18,24.6,18,24.6z"/>
		<g>
			<g>
				<path d="M12.5,14.8c-1,0-1.7-0.8-1.7-1.8s0.8-1.8,1.7-1.8s1.7,0.8,1.7,1.8S13.4,14.8,12.5,14.8z M12.5,12c-0.5,0-1,0.5-1,1
					s0.4,1,1,1s1-0.5,1-1S13,12,12.5,12z"/>
				<path d="M3.2,21.2c-0.2,0-0.4-0.1-0.6-0.1c-0.2-0.1-0.3-0.2-0.3-0.3c0-0.1,0-0.3,0.1-0.5c0.2-0.3,1-1.2,1-1.2l2.1-2.5
					c0.9-1,1.8-2.1,2.6-3.1C8.6,13,9,13,9.3,13.2c0.4,0.1,0.7,0.1,1.1-0.1c0.1-0.1,0.2-0.1,0.3-0.2l0.1-0.1c0.2-0.1,0.4,0,0.5,0.2
					l0.4,0.7c0.1,0.2,0,0.3-0.1,0.5L11,14.8l-6.7,5.9c0,0,0,0,0,0c-0.2,0.1-0.4,0.3-0.6,0.4C3.6,21.2,3.4,21.2,3.2,21.2z M3,20.8
					C3,20.8,3,20.8,3,20.8C3,20.8,3,20.8,3,20.8z M9,13.8c-0.1,0-0.1,0-0.2,0.2c-0.9,1-1.8,2.1-2.6,3.1L4,19.6c0,0-0.4,0.5-0.7,0.9
					c0.1,0,0.1,0,0.1,0c0.1-0.1,0.4-0.3,0.5-0.4l7.1-6.2l-0.1-0.1c0,0,0,0-0.1,0C10.2,14,9.6,14.1,9,13.8C9,13.9,9,13.8,9,13.8z
					 M4.1,20.3L4.1,20.3L4.1,20.3z"/>
				<path d="M11.7,11.9c-0.2,0-0.3-0.1-0.4-0.3L9.3,1.9c0,0,0,0,0,0c0-0.2-0.1-0.5-0.1-0.7c0-0.5,0.3-0.8,0.5-1.1C9.8,0,10,0,10.1,0
					c0.1,0,0.3,0.1,0.3,0.3l1.7,4.7c0.5,1.2,0.9,2.5,1.4,3.7c0.2,0.6,0,1-0.2,1.2c-0.3,0.3-0.5,0.6-0.5,1.1c0,0.1,0,0.3,0,0.4l0,0.1
					c0,0.2-0.2,0.3-0.4,0.3L11.7,11.9C11.7,11.9,11.7,11.9,11.7,11.9z M10,1.8l2,9.4l0.1,0c0,0,0-0.1,0-0.1c0-0.7,0.2-1.2,0.7-1.6
					c0.1-0.1,0.1-0.2,0-0.4c-0.5-1.2-0.9-2.5-1.4-3.7L9.9,1c0,0,0,0.1,0,0.1C9.9,1.3,10,1.6,10,1.8z M10.2,0.7
					C10.2,0.7,10.2,0.7,10.2,0.7C10.2,0.7,10.2,0.7,10.2,0.7z"/>
				<path d="M16.2,15.1c-0.5,0-0.8-0.3-0.9-0.6c-0.2-0.4-0.5-0.6-0.9-0.7c-0.1,0-0.2-0.1-0.4-0.1l-0.1,0c-0.2-0.1-0.3-0.3-0.2-0.4
					l0.2-0.8c0-0.2,0.2-0.3,0.4-0.3l2.6,0.1l7,0.2c0,0,0,0,0,0c0.2,0,0.5,0,0.7,0.1c0.5,0.1,0.7,0.5,0.9,0.8c0.1,0.2,0.1,0.3,0,0.5
					c0,0.1-0.2,0.2-0.4,0.3l-1.5,0.2c0,0,0,0,0,0l-3.3,0.4c-1.3,0.2-2.5,0.3-3.8,0.5C16.3,15.1,16.2,15.1,16.2,15.1z M14.4,13.1
					C14.5,13.1,14.5,13.1,14.4,13.1c0.7,0.2,1.2,0.6,1.5,1.1c0.1,0.1,0.1,0.2,0.3,0.1c1.3-0.2,2.5-0.3,3.8-0.5l3.3-0.4c0,0,0,0,0,0
					l1.1-0.1c0,0-0.1-0.1-0.1-0.1c-0.2,0-0.4,0-0.6-0.1L14.5,13L14.4,13.1z M24.9,13.2C24.9,13.2,24.9,13.2,24.9,13.2L24.9,13.2z"/>
			</g>
			<path class="st4" d="M12.5,14.8"/>
			<path d="M14.7,29.3h-4.3c-0.1,0-0.2,0-0.3-0.1C10,29.1,10,29,10,28.9l1.3-14.5c0-0.2,0.2-0.4,0.4-0.3c0.2,0,0.4,0.2,0.3,0.4
				l-1.3,14.1h3.5L13,14.2c0-0.2,0.1-0.4,0.3-0.4c0.2,0,0.4,0.1,0.4,0.3l1.3,14.8c0,0.1,0,0.2-0.1,0.3
				C14.9,29.3,14.8,29.3,14.7,29.3z"/>
			<path d="M1,17.4c-0.2,0-0.3-0.1-0.4-0.3C0.2,15.8,0,14.4,0,13c0-3.8,1.6-7.4,4.4-9.8C4.5,3,4.8,3,4.9,3.2C5,3.3,5,3.6,4.9,3.7
				C2.3,6,0.8,9.4,0.8,13c0,1.3,0.2,2.7,0.6,3.9c0.1,0.2,0,0.4-0.2,0.5C1.1,17.4,1.1,17.4,1,17.4z"/>
			<path d="M9.5,25.6C9.5,25.6,9.5,25.5,9.5,25.6c-2-0.5-3.8-1.5-5.3-2.9c-0.2-0.1-0.2-0.4,0-0.5c0.1-0.2,0.4-0.2,0.5,0
				c1.4,1.3,3.1,2.2,4.9,2.7c0.2,0.1,0.3,0.3,0.3,0.5C9.8,25.4,9.7,25.6,9.5,25.6z"/>
			<path d="M20.6,8c-0.1,0-0.2-0.1-0.3-0.2c-1.2-1.9-3-3.4-5.1-4c-0.2-0.1-0.3-0.3-0.2-0.5s0.3-0.3,0.5-0.2c2.3,0.7,4.2,2.3,5.5,4.4
				C21,7.6,21,7.8,20.8,8C20.7,8,20.7,8,20.6,8z"/>
			<path d="M2.9,14.5c-0.2,0-0.4-0.1-0.4-0.3c0-0.4-0.1-0.8-0.1-1.2c0-3,1.2-5.8,3.3-7.7c0.2-0.1,0.4-0.1,0.5,0
				c0.1,0.2,0.1,0.4,0,0.5c-2,1.8-3.1,4.4-3.1,7.2c0,0.4,0,0.7,0.1,1.1C3.3,14.3,3.1,14.5,2.9,14.5C2.9,14.5,2.9,14.5,2.9,14.5z"/>
			<path d="M9.5,22.9c0,0-0.1,0-0.1,0c-1.3-0.4-2.5-1.2-3.6-2.1c-0.2-0.1-0.2-0.4,0-0.5c0.1-0.2,0.4-0.2,0.5,0c1,0.9,2.1,1.6,3.3,2
				c0.2,0.1,0.3,0.3,0.2,0.5C9.8,22.8,9.6,22.9,9.5,22.9z"/>
			<path class="st4" d="M15.3,22.6"/>
		</g>
		<path d="M17.4,22c-0.1,0-0.2-0.1-0.3-0.2c-0.1-0.2-0.1-0.4,0.1-0.5c1.9-1.2,3.3-3,4-5.1c0.1-0.2,0.3-0.3,0.5-0.2
			c0.2,0.1,0.3,0.3,0.2,0.5c-0.8,2.3-2.3,4.3-4.3,5.5C17.5,22,17.4,22,17.4,22z"/>
		<path d="M17.2,29.3H7.9c-0.2,0-0.4-0.2-0.4-0.4s0.2-0.4,0.4-0.4h9.3c0.2,0,0.4,0.2,0.4,0.4S17.4,29.3,17.2,29.3z"/>
		<path d="M19.2,29.3h-1c-0.2,0-0.4-0.2-0.4-0.4s0.2-0.4,0.4-0.4h1c0.2,0,0.4,0.2,0.4,0.4S19.4,29.3,19.2,29.3z"/>
	</g>
</g>
</svg>
